<svg width="265" height="158" viewBox="0 0 265 158" fill="none" xmlns="http://www.w3.org/2000/svg">
<path fill-rule="evenodd" clip-rule="evenodd" d="M120.294 13.5546C124.621 13.9718 129.526 13.6406 133.878 15.026C143.612 18.1251 146.4 27.6049 140.684 36.145C134.964 44.6918 122.008 48.5324 112.576 44.4779C106.962 42.0646 104.19 37.6046 104.364 31.2951C104.395 30.2057 104.368 29.1164 104.368 27.5248C103.013 28.58 102.103 29.5863 100.967 30.0846C99.9523 30.5301 98.3905 30.8955 97.6179 30.4158C96.8013 29.9068 96.1394 28.2986 96.2686 27.2796C96.7563 23.4204 98.788 20.3292 102.049 18.1895C104.277 16.726 106.387 17.8828 106.635 20.5656C106.707 21.3502 106.646 22.1464 106.646 23.0922C109.761 20.5461 112.728 18.1202 116.322 15.1823C114.548 15.5223 113.46 15.9854 112.444 15.8584C111.329 15.7206 110.048 15.2673 109.307 14.4994C108.961 14.1418 109.423 12.435 110.02 11.8351C113.417 8.42045 117.555 6.44591 122.445 6.52603C124.726 6.56316 125.484 8.35792 123.971 10.1341C122.735 11.5899 121.166 12.7613 120.294 13.5546Z" fill="white"/>
<path fill-rule="evenodd" clip-rule="evenodd" d="M149.753 36.1624C156.042 36.1663 159.186 40.936 156.274 46.7209C153.313 52.6054 148.422 56.2613 141.575 56.4802C134.934 56.6922 132.652 52.3592 134.722 46.3643C136.662 40.7465 143.81 36.1594 149.753 36.1624Z" fill="white"/>
<path fill-rule="evenodd" clip-rule="evenodd" d="M156.007 32.5964C150.332 32.5573 145.276 27.3704 145.291 21.6041C145.3 17.3473 148.301 14.2013 152.327 14.2277C157.946 14.2658 163.758 20.0985 163.729 25.6753C163.708 29.9692 160.738 32.6277 156.007 32.5964Z" fill="white"/>
<path fill-rule="evenodd" clip-rule="evenodd" d="M118.672 61.5677C116.037 60.8388 113.308 60.3406 110.793 59.3176C108.306 58.3055 106.468 56.3065 106.509 53.4409C106.55 50.6438 108.478 48.9926 110.971 48.1407C115.838 46.4768 120.713 46.6224 125.315 48.9448C127.875 50.2373 129.94 52.2558 129.325 55.5405C128.702 58.876 125.908 59.9664 123.108 60.7685C121.756 61.1564 120.256 61.0333 118.822 61.1427C118.773 61.2844 118.723 61.425 118.672 61.5677Z" fill="white"/>
<path fill-rule="evenodd" clip-rule="evenodd" d="M169.596 39.3425C175.248 39.3083 177.742 43.3414 175.337 47.8884C173.209 51.9136 167.88 54.3591 164.123 53.0343C160.491 51.7534 159.136 48.5733 160.849 45.1244C162.722 41.3542 165.943 39.6219 169.596 39.3425Z" fill="white"/>
<path fill-rule="evenodd" clip-rule="evenodd" d="M128.531 73.8015C126.274 73.1694 124.505 72.9379 122.991 72.1934C119.674 70.5608 119.457 66.8726 122.535 64.7984C126.24 62.3032 130.356 62.1224 134.389 63.6944C137.88 65.0544 138.343 68.9009 135.211 71.018C133.179 72.3898 130.609 72.9682 128.531 73.8015Z" fill="white"/>
<path fill-rule="evenodd" clip-rule="evenodd" d="M139.485 14.5364C136.851 13.704 133.891 13.1451 131.297 11.8506C128.373 10.3909 128.568 7.881 131.386 6.23768C135.029 4.11464 143.778 4.57286 147.1 7.06129C149.524 8.8756 149.456 11.3572 146.674 12.5921C144.571 13.5252 142.191 13.8339 139.485 14.5364Z" fill="white"/>
<path fill-rule="evenodd" clip-rule="evenodd" d="M105.759 43.6952C105.977 46.3439 104.932 48.4561 102.53 49.4664C99.9817 50.5362 97.8442 49.185 96.2893 47.2749C94.2967 44.8266 92.9974 42.0118 93.9325 38.7271C95.1642 34.4009 99.4275 33.1132 102.461 36.4116C104.222 38.3246 105.187 40.9664 106.51 43.279C106.26 43.4177 106.009 43.5565 105.759 43.6952Z" fill="white"/>
<path fill-rule="evenodd" clip-rule="evenodd" d="M157.103 3.26953C159.353 4.3755 161.365 4.9959 162.862 6.2367C163.758 6.97825 164.473 8.90784 164.124 9.90145C163.766 10.9185 161.975 12.0948 160.87 12.0391C158.913 11.9414 156.763 11.3142 155.152 10.2307C154.028 9.47645 152.852 7.33876 153.182 6.27578C153.56 5.06038 155.578 4.35401 157.103 3.26953Z" fill="white"/>
<path fill-rule="evenodd" clip-rule="evenodd" d="M99.4725 56.6797C98.5276 58.0163 97.8941 59.8599 96.819 60.1657C95.7615 60.4656 93.857 59.5345 93.0521 58.5507C92.0259 57.2952 91.2651 55.4438 91.2671 53.8513C91.2691 52.5773 92.3109 50.8138 93.4124 50.2051C94.1644 49.7889 96.2089 50.6496 96.9658 51.5397C98.0782 52.8498 98.554 54.6944 99.4725 56.6797Z" fill="white"/>
<path fill-rule="evenodd" clip-rule="evenodd" d="M127.494 4.6667C126.413 3.97791 125.34 3.29303 124.265 2.6101C125.34 1.80993 126.312 0.614077 127.513 0.310228C129.135 -0.100115 130.979 -0.0766662 132.642 0.224252C134.355 0.533963 134.637 1.85585 133.06 2.7166C131.497 3.5705 129.665 3.93297 127.494 4.6667Z" fill="white"/>
<path fill-rule="evenodd" clip-rule="evenodd" d="M93.5641 28.8006C93.4603 31.9212 91.3355 35.0691 89.7082 34.858C89.0825 34.777 88.1689 33.6358 88.1297 32.9372C88.0005 30.6237 90.5453 27.1543 92.1306 27.4025C92.8052 27.509 93.3311 28.5583 93.5641 28.8006Z" fill="white"/>
<path fill-rule="evenodd" clip-rule="evenodd" d="M102.049 15.8262C101.508 14.3441 101.04 13.6426 101.078 12.9704C101.106 12.4819 101.712 11.8351 102.219 11.5997C104.01 10.7692 105.866 10.0863 107.698 9.3457C107.81 9.89771 108.203 10.7624 107.989 10.9529C106.279 12.4858 104.452 13.8898 102.049 15.8262Z" fill="white"/>
<path d="M0 130.868V91.4482H13.6109C21.1085 91.4482 25.261 95.9944 25.261 101.634C25.261 105.087 23.3001 108.597 19.955 110.266C25.1456 111.129 27.9716 115.042 27.9716 119.531C27.9716 125.976 23.2424 130.868 16.5523 130.868H0ZM13.784 94.268H3.05669V109.345H13.5533C19.4359 109.345 22.2043 105.892 22.2043 101.807C22.2043 97.7208 19.3206 94.268 13.784 94.268ZM16.3793 112.165H3.05669V128.048H16.1486C22.2043 128.048 24.9149 124.192 24.9149 119.761C24.9149 115.675 22.0889 112.165 16.3793 112.165ZM45.6774 101.634C54.04 101.634 60.4994 108.079 60.4994 116.423C60.4994 124.825 54.04 131.27 45.6774 131.27C37.257 131.27 30.7976 124.825 30.7976 116.423C30.7976 108.079 37.257 101.634 45.6774 101.634ZM45.6774 104.339C38.7565 104.339 33.6236 109.633 33.6236 116.481C33.6236 123.271 38.7565 128.566 45.6774 128.566C52.5405 128.566 57.6734 123.271 57.6734 116.481C57.6734 109.633 52.5405 104.339 45.6774 104.339ZM78.2628 101.634C86.6255 101.634 93.0849 108.079 93.0849 116.423C93.0849 124.825 86.6255 131.27 78.2628 131.27C69.8425 131.27 63.3831 124.825 63.3831 116.423C63.3831 108.079 69.8425 101.634 78.2628 101.634ZM78.2628 104.339C71.342 104.339 66.2091 109.633 66.2091 116.481C66.2091 123.271 71.342 128.566 78.2628 128.566C85.126 128.566 90.2589 123.271 90.2589 116.481C90.2589 109.633 85.126 104.339 78.2628 104.339ZM99.6597 116.136L112.636 102.094H116.097L102.659 116.538L118.634 130.868H114.655L99.6597 117.402V130.868H96.8337V91.4482H99.6597V116.136ZM155.603 130.868L145.452 96.167L135.36 130.868H132.072L120.941 91.4482H124.056L133.86 126.609L144.011 91.4482H147.183L157.333 126.552L167.138 91.4482H170.194L158.89 130.868H155.603ZM187.669 101.634C196.032 101.634 202.491 108.079 202.491 116.423C202.491 124.825 196.032 131.27 187.669 131.27C179.249 131.27 172.79 124.825 172.79 116.423C172.79 108.079 179.249 101.634 187.669 101.634ZM187.669 104.339C180.749 104.339 175.616 109.633 175.616 116.481C175.616 123.271 180.749 128.566 187.669 128.566C194.532 128.566 199.665 123.271 199.665 116.481C199.665 109.633 194.532 104.339 187.669 104.339ZM218.698 101.634V104.741C213.161 104.741 209.066 108.942 209.066 115.215V130.868H206.24V102.094H209.066V107.446C210.162 105.259 213.276 101.634 218.698 101.634ZM225.272 102.094V106.295C226.657 103.936 229.598 101.634 234.327 101.634C238.768 101.634 242.171 103.821 243.786 107.446C245.343 104.511 248.515 101.634 253.878 101.634C260.223 101.634 264.375 106.007 264.375 112.798V130.868H261.549V113.028C261.549 107.561 258.55 104.339 253.59 104.339C248.399 104.339 244.824 107.676 244.824 113.373V130.868H241.998V113.028C241.998 107.561 238.999 104.339 234.039 104.339C228.733 104.339 225.272 107.849 225.272 113.776V130.868H222.446V102.094H225.272Z" fill="white"/>
<path d="M99.07 157.414C97.4133 157.414 96.0562 156.042 96.0562 154.371V144.435C96.0562 144.312 96.1619 144.207 96.2853 144.207H97.7129V154.53C97.7129 155.286 98.3298 155.901 99.07 155.901H104.569C104.692 155.901 104.798 156.007 104.798 156.13V157.414H99.07ZM106.807 157.414C106.684 157.414 106.578 157.308 106.578 157.185V144.207H108.006C108.129 144.207 108.235 144.312 108.235 144.435V157.414H106.807ZM111.707 157.414C111.143 157.414 110.685 156.957 110.685 156.394V145.191C110.685 144.646 111.126 144.207 111.672 144.207H111.954H117.312C118.969 144.207 120.308 145.543 120.308 147.196V148.533C120.308 149.377 119.638 150.502 118.687 150.696C119.638 150.942 120.308 152.015 120.308 152.859V154.407C120.308 156.06 118.969 157.414 117.312 157.414H111.707ZM118.651 154.547V152.789C118.651 152.05 118.052 151.452 117.312 151.452H112.342V155.567C112.342 155.743 112.483 155.901 112.677 155.901H117.312C118.052 155.901 118.651 155.286 118.651 154.547ZM112.342 146.053V149.94H117.312C118.052 149.94 118.651 149.342 118.651 148.603V147.056C118.651 146.317 118.052 145.719 117.312 145.719H112.677C112.483 145.719 112.342 145.86 112.342 146.053ZM123.992 151.083H123.957V157.185C123.957 157.308 123.851 157.414 123.727 157.414H122.3V145.227C122.3 144.664 122.758 144.207 123.322 144.207H128.856C130.513 144.207 131.853 145.244 131.853 147.038V148.744C131.853 150.291 130.742 151.135 129.456 151.47L132.276 157.414H130.742C130.619 157.414 130.478 157.308 130.425 157.203L127.746 151.558H125.49H124.979C124.485 151.558 124.115 151.417 123.992 151.083ZM124.291 150.045H128.856C129.597 150.045 130.196 149.447 130.196 148.709V147.056C130.196 146.317 129.597 145.719 128.856 145.719H124.291C124.098 145.719 123.957 145.877 123.957 146.053V149.711C123.957 149.904 124.115 150.045 124.291 150.045ZM140.859 144.33L145.477 157.414H144.031C143.873 157.414 143.749 157.308 143.714 157.185L142.533 153.791H135.801L134.62 157.185C134.584 157.308 134.443 157.414 134.302 157.414H132.857L137.158 145.191C137.369 144.611 137.916 144.207 138.55 144.207H140.647C140.736 144.207 140.824 144.259 140.859 144.33ZM136.329 152.279H142.005L139.713 145.719H138.85C138.709 145.719 138.585 145.807 138.532 145.948L136.329 152.279ZM148.543 151.083H148.508V157.185C148.508 157.308 148.402 157.414 148.279 157.414H146.851V145.227C146.851 144.664 147.31 144.207 147.874 144.207H153.408C155.065 144.207 156.404 145.244 156.404 147.038V148.744C156.404 150.291 155.294 151.135 154.007 151.47L156.827 157.414H155.294C155.17 157.414 155.029 157.308 154.977 157.203L152.298 151.558H150.042H149.53C149.037 151.558 148.667 151.417 148.543 151.083ZM148.843 150.045H153.408C154.148 150.045 154.747 149.447 154.747 148.709V147.056C154.747 146.317 154.148 145.719 153.408 145.719H148.843C148.649 145.719 148.508 145.877 148.508 146.053V149.711C148.508 149.904 148.667 150.045 148.843 150.045ZM167.261 144.207H168.812L166.116 151.048C165.922 151.575 165.499 152.05 164.811 152.05H164.018V157.185C164.018 157.308 163.912 157.414 163.789 157.414H162.344V152.05L161.639 152.032C160.881 152.032 160.44 151.575 160.246 151.048L157.55 144.207H159.101C159.224 144.207 159.365 144.312 159.418 144.418L161.621 150.168C161.692 150.344 161.903 150.485 162.079 150.485H164.283C164.459 150.485 164.67 150.344 164.741 150.168L166.944 144.418C166.997 144.312 167.138 144.207 167.261 144.207Z" fill="white"/>
</svg>
