<svg width="73" height="61" viewBox="0 0 73 61" fill="none" xmlns="http://www.w3.org/2000/svg">
<path fill-rule="evenodd" clip-rule="evenodd" d="M26.5028 11.167C30.0676 11.5107 34.1082 11.2378 37.694 12.3792C45.7132 14.9323 48.0099 22.7424 43.3012 29.7781C38.5886 36.8194 27.9145 39.9835 20.1437 36.6431C15.519 34.655 13.2352 30.9806 13.3788 25.7825C13.4038 24.885 13.3821 23.9876 13.3821 22.6764C12.2656 23.5457 11.5154 24.3747 10.5796 24.7852C9.7439 25.1523 8.45724 25.4533 7.82076 25.0581C7.14799 24.6387 6.60267 23.3138 6.70915 22.4743C7.11088 19.2949 8.78475 16.7482 11.471 14.9855C13.307 13.7797 15.0454 14.7327 15.2495 16.943C15.3084 17.5893 15.2584 18.2453 15.2584 19.0245C17.8245 16.9269 20.2695 14.9283 23.2301 12.5079C21.7684 12.788 20.8721 13.1696 20.0356 13.0649C19.1168 12.9514 18.0616 12.578 17.451 11.9453C17.1654 11.6507 17.5462 10.2445 18.0382 9.75032C20.8366 6.93716 24.2457 5.31044 28.2743 5.37645C30.1539 5.40703 30.7782 6.88565 29.5319 8.34898C28.5139 9.54829 27.2208 10.5134 26.5028 11.167Z" fill="black"/>
<path fill-rule="evenodd" clip-rule="evenodd" d="M50.7725 29.7925C55.9531 29.7957 58.5433 33.7253 56.1442 38.4911C53.7048 43.3391 49.6754 46.3511 44.0351 46.5314C38.5633 46.706 36.6837 43.1363 38.3891 38.1973C39.9871 33.5691 45.8759 29.7901 50.7725 29.7925Z" fill="black"/>
<path fill-rule="evenodd" clip-rule="evenodd" d="M55.9241 26.8547C51.2494 26.8225 47.0836 22.5492 47.0957 17.7986C47.1038 14.2916 49.5763 11.6998 52.8926 11.7216C57.5221 11.753 62.3098 16.5583 62.2864 21.1527C62.2687 24.6903 59.822 26.8804 55.9241 26.8547Z" fill="black"/>
<path fill-rule="evenodd" clip-rule="evenodd" d="M25.1659 50.7226C22.9951 50.1222 20.7469 49.7116 18.6753 48.8689C16.6263 48.035 15.1122 46.3882 15.1461 44.0274C15.1791 41.7229 16.7675 40.3626 18.8213 39.6607C22.8314 38.29 26.8479 38.4099 30.6393 40.3232C32.748 41.3881 34.4493 43.051 33.9427 45.7571C33.4296 48.5051 31.1273 49.4034 28.821 50.0642C27.707 50.3837 26.4711 50.2823 25.2901 50.3725C25.249 50.4892 25.2079 50.6051 25.1659 50.7226Z" fill="black"/>
<path fill-rule="evenodd" clip-rule="evenodd" d="M67.1203 32.4125C71.7765 32.3844 73.8311 35.707 71.8499 39.4531C70.0969 42.7693 65.7062 44.784 62.6109 43.6925C59.6189 42.6373 58.5024 40.0173 59.9133 37.176C61.4565 34.0698 64.1105 32.6427 67.1203 32.4125Z" fill="black"/>
<path fill-rule="evenodd" clip-rule="evenodd" d="M33.2886 60.8017C31.4292 60.281 29.9715 60.0902 28.7244 59.4769C25.9921 58.1319 25.813 55.0933 28.3492 53.3845C31.4009 51.3288 34.7922 51.1799 38.115 52.475C40.9908 53.5954 41.3724 56.7643 38.7918 58.5086C37.1179 59.6387 35.0004 60.1152 33.2886 60.8017Z" fill="black"/>
<path fill-rule="evenodd" clip-rule="evenodd" d="M42.3129 11.9758C40.1429 11.29 37.7043 10.8296 35.5674 9.76311C33.1586 8.56058 33.3191 6.49277 35.6408 5.13891C38.6417 3.38984 45.8502 3.76735 48.5865 5.81745C50.5839 7.31217 50.5274 9.35664 48.2356 10.374C46.5036 11.1427 44.5426 11.3971 42.3129 11.9758Z" fill="black"/>
<path fill-rule="evenodd" clip-rule="evenodd" d="M14.5274 35.9984C14.7073 38.1805 13.8465 39.9207 11.8669 40.753C9.76792 41.6344 8.00692 40.5212 6.7259 38.9476C5.0843 36.9305 4.01382 34.6115 4.78421 31.9054C5.79902 28.3413 9.31133 27.2804 11.8104 29.9978C13.2609 31.5738 14.0563 33.7503 15.1461 35.6555C14.9404 35.7698 14.7339 35.8841 14.5274 35.9984Z" fill="black"/>
<path fill-rule="evenodd" clip-rule="evenodd" d="M56.8278 2.6936C58.6815 3.60476 60.3393 4.11588 61.5727 5.13811C62.3108 5.74904 62.8997 7.33873 62.6117 8.15733C62.3173 8.99524 60.8418 9.96435 59.9311 9.91847C58.3185 9.83798 56.5478 9.32122 55.22 8.42858C54.2948 7.80719 53.3259 6.04605 53.5978 5.17031C53.9092 4.169 55.5718 3.58705 56.8278 2.6936Z" fill="black"/>
<path fill-rule="evenodd" clip-rule="evenodd" d="M9.34841 46.6955C8.56996 47.7966 8.04803 49.3155 7.16229 49.5674C6.29107 49.8145 4.72207 49.0474 4.05897 48.2369C3.21356 47.2026 2.58677 45.6773 2.58838 44.3653C2.59 43.3157 3.44831 41.8628 4.35583 41.3614C4.97537 41.0185 6.65973 41.7276 7.2833 42.4609C8.19969 43.5403 8.59174 45.0599 9.34841 46.6955Z" fill="black"/>
<path fill-rule="evenodd" clip-rule="evenodd" d="M32.4344 3.84467C31.5438 3.27721 30.6597 2.71297 29.7739 2.15034C30.6597 1.49112 31.4607 0.505909 32.4497 0.255582C33.7864 -0.08248 35.3054 -0.0631616 36.6759 0.18475C38.0868 0.439907 38.3192 1.52895 37.0204 2.23807C35.7321 2.94156 34.2228 3.24018 32.4344 3.84467Z" fill="black"/>
<path fill-rule="evenodd" clip-rule="evenodd" d="M4.48101 23.7276C4.3955 26.2985 2.64499 28.8919 1.30428 28.7181C0.788809 28.6513 0.0361708 27.7111 0.00390337 27.1356C-0.102579 25.2296 1.994 22.3714 3.30002 22.5758C3.85583 22.6636 4.28902 23.528 4.48101 23.7276Z" fill="black"/>
<path fill-rule="evenodd" clip-rule="evenodd" d="M11.4711 13.0384C11.0259 11.8174 10.6403 11.2395 10.6717 10.6857C10.6943 10.2832 11.1936 9.75037 11.6115 9.55639C13.0869 8.87221 14.6164 8.30958 16.1257 7.69946C16.2177 8.15424 16.5412 8.86658 16.3653 9.02354C14.956 10.2864 13.4508 11.4431 11.4711 13.0384Z" fill="black"/>
</svg>
